<svg width="117" height="35" viewBox="0 0 117 35" fill="none" xmlns="http://www.w3.org/2000/svg">
<path d="M29.6654 14.049C29.4205 6.37741 23.2042 0.186542 15.5068 0C15.3085 0 15.1452 0.151566 15.1452 0.349767L15.1336 5.503C15.1336 5.75949 14.9353 5.95769 14.6787 5.96935C7.0046 6.20253 0.811666 12.4284 0.625061 20.1233C0.625061 20.3215 0.776677 20.4847 0.974944 20.4847L6.11823 20.4963C6.37481 20.4963 6.57308 20.6945 6.58474 20.951C6.82966 28.6226 13.0576 34.8135 20.7434 35C20.9416 35 21.1049 34.8484 21.1049 34.6502L21.1166 29.497C21.1166 29.2405 21.3148 29.0423 21.5714 29.0306C29.2455 28.7858 35.4385 22.56 35.6251 14.8767C35.6251 14.6785 35.4734 14.5153 35.2752 14.5153L30.1319 14.5037C29.8753 14.5037 29.677 14.3055 29.6654 14.049ZM20.6034 28.9957C16.2415 28.7392 12.7427 25.1949 12.5794 20.8111C12.5677 20.6246 12.4161 20.473 12.2295 20.473L7.0979 20.4614C6.82966 20.4614 6.61973 20.2398 6.63139 19.9717C6.88797 15.6113 10.4335 12.1136 14.8187 11.9504C15.0053 11.9387 15.1569 11.7871 15.1569 11.6006L15.1685 6.45903C15.1685 6.19087 15.3901 5.98101 15.6584 5.99267C20.0203 6.24917 23.5191 9.79347 23.6824 14.1772C23.694 14.3638 23.8457 14.5153 24.0323 14.5153L29.1639 14.527C29.4321 14.527 29.6421 14.7485 29.6304 15.0167C29.3738 19.4937 25.6534 23.0496 21.1166 23.0496L21.1049 28.5293C21.0932 28.7975 20.8716 29.0073 20.6034 28.9957Z" fill="#E60000"/>
<path fill-rule="evenodd" clip-rule="evenodd" d="M14.9928 14.3982C14.9928 13.6927 15.7491 13.2455 16.3672 13.5855L22.0759 16.7253C22.7166 17.0777 22.7166 17.9983 22.0759 18.3506L16.3672 21.4904C15.7491 21.8304 14.9928 21.3832 14.9928 20.6777V14.3982Z" fill="white"/>
<path d="M37.3751 15.6948C37.3751 15.2522 37.4585 14.8369 37.6255 14.449C37.7924 14.0611 38.0183 13.723 38.3031 13.4345C38.5928 13.1411 38.9292 12.9099 39.3122 12.7408C39.6952 12.5717 40.1052 12.4872 40.5422 12.4872H45.3887V14.628H40.5422C40.3949 14.628 40.2574 14.6554 40.1297 14.7101C40.0021 14.7648 39.8891 14.8419 39.7909 14.9413C39.6976 15.0358 39.624 15.1477 39.57 15.277C39.516 15.4063 39.4889 15.5456 39.4889 15.6948C39.4889 15.8439 39.516 15.9857 39.57 16.12C39.624 16.2492 39.6976 16.3636 39.7909 16.4631C39.8891 16.5576 40.0021 16.6322 40.1297 16.6869C40.2574 16.7416 40.3949 16.7689 40.5422 16.7689H42.6561C43.0931 16.7689 43.5031 16.8535 43.8861 17.0226C44.274 17.1867 44.6104 17.4154 44.8952 17.7088C45.1849 17.9973 45.4108 18.3379 45.5728 18.7308C45.7398 19.1187 45.8232 19.5339 45.8232 19.9765C45.8232 20.4191 45.7398 20.8344 45.5728 21.2223C45.4108 21.6101 45.1849 21.9508 44.8952 22.2442C44.6104 22.5326 44.274 22.7614 43.8861 22.9305C43.5031 23.0996 43.0931 23.1841 42.6561 23.1841H37.9643V21.0432H42.6561C42.8034 21.0432 42.9409 21.0159 43.0686 20.9612C43.1962 20.9065 43.3067 20.8319 43.4 20.7374C43.4982 20.6379 43.5743 20.5235 43.6283 20.3942C43.6823 20.2649 43.7094 20.1257 43.7094 19.9765C43.7094 19.8273 43.6823 19.6881 43.6283 19.5588C43.5743 19.4295 43.4982 19.3176 43.4 19.2231C43.3067 19.1236 43.1962 19.0466 43.0686 18.9919C42.9409 18.9372 42.8034 18.9098 42.6561 18.9098H40.5422C40.1052 18.9098 39.6952 18.8253 39.3122 18.6562C38.9292 18.4871 38.5928 18.2583 38.3031 17.9699C38.0183 17.6765 37.7924 17.3359 37.6255 16.948C37.4585 16.5551 37.3751 16.1374 37.3751 15.6948Z" fill="white"/>
<path d="M50.8244 23.1841C50.3383 23.1841 49.8816 23.0921 49.4544 22.9081C49.0272 22.7191 48.6516 22.463 48.3275 22.1398C48.0083 21.8116 47.7554 21.4311 47.5689 20.9985C47.3872 20.5658 47.2963 20.1033 47.2963 19.611V17.2389H46.3167V15.2099H47.2963V12.0172H49.2997V15.2099H52.349V17.2389H49.2997V19.611C49.2997 19.8248 49.339 20.0262 49.4176 20.2152C49.4961 20.3992 49.6042 20.5608 49.7417 20.7001C49.8792 20.8393 50.0412 20.9512 50.2278 21.0358C50.4144 21.1153 50.6132 21.1551 50.8244 21.1551H52.349V23.1841H50.8244Z" fill="white"/>
<path d="M55.4941 23.1841H53.4833V15.195H53.9694L54.6323 16.1423C54.9564 15.8439 55.3247 15.6152 55.7371 15.4561C56.1496 15.2919 56.5768 15.2099 57.0187 15.2099H58.7938V17.2389H57.0187C56.8076 17.2389 56.6087 17.2787 56.4221 17.3582C56.2355 17.4378 56.0735 17.5472 55.936 17.6864C55.7985 17.8257 55.6905 17.9898 55.6119 18.1788C55.5334 18.3677 55.4941 18.5692 55.4941 18.783V23.1841Z" fill="white"/>
<path d="M62.7196 21.2297C62.7982 21.2546 62.8767 21.272 62.9553 21.2819C63.0339 21.2869 63.1124 21.2894 63.191 21.2894C63.3874 21.2894 63.5764 21.262 63.7581 21.2073C63.9398 21.1526 64.1092 21.0756 64.2663 20.9761C64.4284 20.8717 64.5708 20.7473 64.6935 20.6031C64.8212 20.4539 64.9243 20.2898 65.0029 20.1108L66.476 21.6101C66.2894 21.8787 66.0733 22.1199 65.8278 22.3337C65.5872 22.5476 65.3245 22.7291 65.0397 22.8783C64.7598 23.0275 64.4628 23.1393 64.1485 23.2139C63.8392 23.2935 63.52 23.3333 63.191 23.3333C62.6361 23.3333 62.1132 23.2289 61.6221 23.02C61.136 22.8111 60.7088 22.5202 60.3406 22.1472C59.9772 21.7743 59.6899 21.3317 59.4788 20.8194C59.2677 20.3022 59.1621 19.7353 59.1621 19.1187C59.1621 18.4871 59.2677 17.9102 59.4788 17.3881C59.6899 16.8659 59.9772 16.4208 60.3406 16.0528C60.7088 15.6848 61.136 15.3989 61.6221 15.195C62.1132 14.9911 62.6361 14.8891 63.191 14.8891C63.52 14.8891 63.8416 14.9289 64.1559 15.0085C64.4701 15.0881 64.7672 15.2024 65.0471 15.3516C65.3319 15.5008 65.597 15.6848 65.8426 15.9036C66.0881 16.1175 66.3041 16.3587 66.4907 16.6272L62.7196 21.2297ZM63.7508 17.03C63.6575 16.9952 63.5642 16.9728 63.4709 16.9629C63.3825 16.9529 63.2892 16.948 63.191 16.948C62.916 16.948 62.6558 17.0002 62.4103 17.1046C62.1696 17.2041 61.9585 17.3483 61.7768 17.5373C61.6001 17.7262 61.4601 17.955 61.357 18.2235C61.2539 18.4871 61.2023 18.7855 61.2023 19.1187C61.2023 19.1933 61.2048 19.2778 61.2097 19.3723C61.2195 19.4668 61.2318 19.5638 61.2465 19.6632C61.2662 19.7577 61.2882 19.8497 61.3128 19.9392C61.3374 20.0287 61.3693 20.1083 61.4086 20.1779L63.7508 17.03Z" fill="white"/>
<path d="M75.0862 23.1841H74.6001L73.8193 22.0876C73.6278 22.2616 73.4241 22.4257 73.208 22.5799C72.9969 22.7291 72.7734 22.8609 72.5378 22.9752C72.3021 23.0846 72.059 23.1717 71.8086 23.2363C71.5631 23.301 71.3126 23.3333 71.0573 23.3333C70.5024 23.3333 69.9795 23.2388 69.4885 23.0498C69.0023 22.8609 68.5751 22.5873 68.2069 22.2293C67.8435 21.8663 67.5563 21.4237 67.3451 20.9015C67.134 20.3793 67.0284 19.7851 67.0284 19.1187C67.0284 18.497 67.134 17.9276 67.3451 17.4104C67.5563 16.8883 67.8435 16.4407 68.2069 16.0677C68.5751 15.6948 69.0023 15.4063 69.4885 15.2024C69.9795 14.9936 70.5024 14.8891 71.0573 14.8891C71.3126 14.8891 71.5655 14.9215 71.8159 14.9861C72.0664 15.0508 72.3094 15.1403 72.5451 15.2546C72.7808 15.369 73.0042 15.5033 73.2154 15.6575C73.4314 15.8116 73.6328 15.9782 73.8193 16.1572L74.6001 15.2099H75.0862V23.1841ZM73.0607 19.1187C73.0607 18.8402 73.0067 18.5716 72.8987 18.313C72.7955 18.0495 72.6531 17.8182 72.4715 17.6193C72.2898 17.4154 72.0762 17.2538 71.8307 17.1344C71.5901 17.0101 71.3323 16.948 71.0573 16.948C70.7823 16.948 70.5221 16.9952 70.2766 17.0897C70.036 17.1842 69.8248 17.3234 69.6431 17.5074C69.4664 17.6914 69.3264 17.9202 69.2233 18.1937C69.1202 18.4622 69.0686 18.7706 69.0686 19.1187C69.0686 19.4668 69.1202 19.7776 69.2233 20.0511C69.3264 20.3197 69.4664 20.5459 69.6431 20.7299C69.8248 20.9139 70.036 21.0532 70.2766 21.1477C70.5221 21.2421 70.7823 21.2894 71.0573 21.2894C71.3323 21.2894 71.5901 21.2297 71.8307 21.1104C72.0762 20.986 72.2898 20.8244 72.4715 20.6255C72.6531 20.4216 72.7955 20.1904 72.8987 19.9318C73.0067 19.6682 73.0607 19.3972 73.0607 19.1187Z" fill="white"/>
<path d="M86.6573 23.1841H84.6539V18.1116C84.6539 17.9724 84.6269 17.8406 84.5729 17.7163C84.5238 17.592 84.4526 17.4826 84.3593 17.3881C84.266 17.2936 84.158 17.2215 84.0352 17.1717C83.9125 17.117 83.7824 17.0897 83.6449 17.0897C83.5074 17.0897 83.3773 17.117 83.2545 17.1717C83.1367 17.2215 83.0311 17.2936 82.9378 17.3881C82.8494 17.4826 82.7782 17.592 82.7242 17.7163C82.6751 17.8406 82.6505 17.9724 82.6505 18.1116V23.1841H80.6398V18.1116C80.6398 17.9724 80.6128 17.8406 80.5587 17.7163C80.5096 17.592 80.4384 17.4826 80.3451 17.3881C80.2518 17.2936 80.1438 17.2215 80.0211 17.1717C79.8983 17.117 79.7682 17.0897 79.6307 17.0897C79.4932 17.0897 79.3631 17.117 79.2403 17.1717C79.1225 17.2215 79.0169 17.2936 78.9236 17.3881C78.8352 17.4826 78.764 17.592 78.71 17.7163C78.6609 17.8406 78.6364 17.9724 78.6364 18.1116V23.1841H76.6256V15.195H77.1117L77.6567 15.8067C77.9366 15.5679 78.2435 15.3839 78.5774 15.2546C78.9162 15.1204 79.2673 15.0532 79.6307 15.0532C79.999 15.0532 80.3574 15.1229 80.706 15.2621C81.0596 15.4014 81.3689 15.6425 81.6341 15.9857C81.7569 15.8166 81.8968 15.6724 82.0539 15.553C82.2111 15.4337 82.3756 15.3367 82.5474 15.2621C82.7242 15.1875 82.9059 15.1353 83.0925 15.1055C83.279 15.0706 83.4632 15.0532 83.6449 15.0532C84.0622 15.0532 84.4526 15.1328 84.816 15.2919C85.1842 15.4511 85.5034 15.6699 85.7735 15.9484C86.0485 16.2219 86.2645 16.5451 86.4216 16.9181C86.5788 17.2911 86.6573 17.6889 86.6573 18.1116V23.1841Z" fill="white"/>
<path d="M96.4166 12.4872L92.9474 23.1841H90.8336L87.3792 12.4872H89.7803L91.8868 19.6259L94.0007 12.4872H96.4166Z" fill="white"/>
<path d="M99.5911 13.0243C99.5911 13.2132 99.5543 13.3898 99.4806 13.5539C99.4119 13.718 99.3161 13.8622 99.1933 13.9865C99.0706 14.1059 98.9257 14.2029 98.7588 14.2775C98.5967 14.3471 98.4224 14.3819 98.2358 14.3819C98.0492 14.3819 97.8725 14.3471 97.7055 14.2775C97.5435 14.2029 97.4011 14.1059 97.2783 13.9865C97.1605 13.8622 97.0647 13.718 96.9911 13.5539C96.9223 13.3898 96.888 13.2132 96.888 13.0243C96.888 12.8403 96.9223 12.6662 96.9911 12.5021C97.0647 12.333 97.1605 12.1888 97.2783 12.0694C97.4011 11.9451 97.5435 11.8481 97.7055 11.7785C97.8725 11.7039 98.0492 11.6666 98.2358 11.6666C98.4224 11.6666 98.5967 11.7039 98.7588 11.7785C98.9257 11.8481 99.0706 11.9451 99.1933 12.0694C99.3161 12.1888 99.4119 12.333 99.4806 12.5021C99.5543 12.6662 99.5911 12.8403 99.5911 13.0243ZM99.2449 23.1841H97.2194V15.195H99.2449V23.1841Z" fill="white"/>
<path d="M108.68 19.1187C108.68 19.7453 108.574 20.3172 108.363 20.8344C108.152 21.3516 107.865 21.7966 107.502 22.1696C107.138 22.5376 106.711 22.8236 106.22 23.0275C105.734 23.2313 105.211 23.3333 104.651 23.3333C104.096 23.3333 103.573 23.2289 103.082 23.02C102.596 22.8111 102.169 22.5202 101.801 22.1472C101.437 21.7743 101.15 21.3317 100.939 20.8194C100.728 20.3022 100.622 19.7353 100.622 19.1187V12.0172H102.64V15.747C102.748 15.6077 102.879 15.4834 103.031 15.374C103.188 15.2646 103.355 15.1751 103.532 15.1055C103.713 15.0358 103.9 14.9836 104.091 14.9488C104.283 14.909 104.469 14.8891 104.651 14.8891C105.211 14.8891 105.734 14.9961 106.22 15.2099C106.711 15.4188 107.138 15.7122 107.502 16.0901C107.865 16.4681 108.152 16.9156 108.363 17.4328C108.574 17.945 108.68 18.507 108.68 19.1187ZM106.655 19.1187C106.655 18.8103 106.601 18.5244 106.493 18.2608C106.389 17.9923 106.247 17.761 106.065 17.5671C105.884 17.3731 105.67 17.2215 105.425 17.1121C105.184 17.0027 104.926 16.948 104.651 16.948C104.376 16.948 104.116 17.0101 103.87 17.1344C103.63 17.2538 103.419 17.4154 103.237 17.6193C103.055 17.8182 102.913 18.0495 102.81 18.313C102.707 18.5716 102.655 18.8402 102.655 19.1187C102.655 19.427 102.707 19.7129 102.81 19.9765C102.913 20.2401 103.055 20.4688 103.237 20.6628C103.419 20.8567 103.63 21.0109 103.87 21.1253C104.116 21.2347 104.376 21.2894 104.651 21.2894C104.926 21.2894 105.184 21.2347 105.425 21.1253C105.67 21.0109 105.884 20.8567 106.065 20.6628C106.247 20.4688 106.389 20.2401 106.493 19.9765C106.601 19.7129 106.655 19.427 106.655 19.1187Z" fill="white"/>
<path d="M112.937 21.2297C113.016 21.2546 113.094 21.272 113.173 21.2819C113.252 21.2869 113.33 21.2894 113.409 21.2894C113.605 21.2894 113.794 21.262 113.976 21.2073C114.158 21.1526 114.327 21.0756 114.484 20.9761C114.646 20.8717 114.788 20.7473 114.911 20.6031C115.039 20.4539 115.142 20.2898 115.221 20.1108L116.694 21.6101C116.507 21.8787 116.291 22.1199 116.046 22.3337C115.805 22.5476 115.542 22.7291 115.257 22.8783C114.978 23.0275 114.68 23.1393 114.366 23.2139C114.057 23.2935 113.738 23.3333 113.409 23.3333C112.854 23.3333 112.331 23.2289 111.84 23.02C111.354 22.8111 110.927 22.5202 110.558 22.1472C110.195 21.7743 109.908 21.3317 109.696 20.8194C109.485 20.3022 109.38 19.7353 109.38 19.1187C109.38 18.4871 109.485 17.9102 109.696 17.3881C109.908 16.8659 110.195 16.4208 110.558 16.0528C110.927 15.6848 111.354 15.3989 111.84 15.195C112.331 14.9911 112.854 14.8891 113.409 14.8891C113.738 14.8891 114.059 14.9289 114.374 15.0085C114.688 15.0881 114.985 15.2024 115.265 15.3516C115.55 15.5008 115.815 15.6848 116.06 15.9036C116.306 16.1175 116.522 16.3587 116.708 16.6272L112.937 21.2297ZM113.968 17.03C113.875 16.9952 113.782 16.9728 113.689 16.9629C113.6 16.9529 113.507 16.948 113.409 16.948C113.134 16.948 112.873 17.0002 112.628 17.1046C112.387 17.2041 112.176 17.3483 111.995 17.5373C111.818 17.7262 111.678 17.955 111.575 18.2235C111.472 18.4871 111.42 18.7855 111.42 19.1187C111.42 19.1933 111.422 19.2778 111.427 19.3723C111.437 19.4668 111.449 19.5638 111.464 19.6632C111.484 19.7577 111.506 19.8497 111.53 19.9392C111.555 20.0287 111.587 20.1083 111.626 20.1779L113.968 17.03Z" fill="white"/>
</svg>
