<svg width="21" height="20" viewBox="0 0 21 20" fill="none" xmlns="http://www.w3.org/2000/svg">
<g clip-path="url(#clip0_5_2945)">
<path d="M6.62578 18.125C14.1711 18.125 18.2992 11.8723 18.2992 6.45159C18.2992 6.27581 18.2953 6.09612 18.2875 5.92034C19.0905 5.33959 19.7836 4.62025 20.334 3.79612C19.5861 4.12887 18.792 4.34619 17.9789 4.44065C18.8351 3.92746 19.4761 3.12126 19.7832 2.17151C18.9778 2.64884 18.097 2.98555 17.1785 3.16721C16.5597 2.50967 15.7415 2.0743 14.8504 1.92841C13.9593 1.78253 13.045 1.93425 12.2488 2.36012C11.4526 2.78599 10.8188 3.46229 10.4455 4.28446C10.0722 5.10664 9.98018 6.02888 10.1836 6.90862C8.55273 6.82678 6.95726 6.40312 5.50064 5.66512C4.04401 4.92712 2.75873 3.89124 1.72812 2.62464C1.20432 3.52774 1.04403 4.59641 1.27984 5.61345C1.51566 6.63049 2.12987 7.51958 2.99766 8.10003C2.34617 8.07934 1.70896 7.90394 1.13867 7.58831V7.63909C1.13809 8.58683 1.46573 9.50553 2.06591 10.239C2.66609 10.9725 3.50175 11.4755 4.43086 11.6625C3.82736 11.8276 3.19397 11.8517 2.57969 11.7328C2.84186 12.5479 3.35196 13.2608 4.03879 13.772C4.72562 14.2832 5.55492 14.5672 6.41094 14.5844C4.95767 15.726 3.16246 16.3451 1.31445 16.3422C0.986724 16.3417 0.659317 16.3216 0.333984 16.2821C2.21136 17.4865 4.39526 18.1262 6.62578 18.125Z" fill="white"/>
</g>
<defs>
<clipPath id="clip0_5_2945">
<rect width="20" height="20" fill="white" transform="translate(0.333984)"/>
</clipPath>
</defs>
</svg>
